<svg height="50" viewBox="0 0 100 100" xmlns="http://www.w3.org/2000/svg">
    <g transform="translate(50, 0) scale(0.8)">
        <path d="M 0 0 L 50 50 C 57 57 47 67 40 60 L 0 20 L -40 60 C -47 67 -57 57 -50 50 L 0 0" />
    </g>

    <g id="abbr" transform="translate(29, 35), scale(0.75)" stroke-linecap="round" fill-rule="evenodd" font-size="9pt" stroke="#000" stroke-width="0.1mm" fill="#000" style="stroke:#000;stroke-width:0.1mm;fill:#000">
        <path d="M 0 68.903 L 0 51.716 A 59.058 59.058 0 0 0 11.719 56.184 A 42.839 42.839 0 0 0 22.412 57.722 A 13.674 13.674 0 0 0 27.124 57.038 A 5.733 5.733 0 0 0 29.834 55.158 Q 30.713 53.962 30.713 52.399 A 4.286 4.286 0 0 0 29.419 49.25 A 16.201 16.201 0 0 0 25.293 46.54 Q 22.461 45.124 17.822 43.024 Q 13.867 41.169 10.669 39.216 Q 7.471 37.263 5.2 34.748 A 17.644 17.644 0 0 1 1.709 28.864 A 23.376 23.376 0 0 1 0.488 20.905 A 19.101 19.101 0 0 1 3.882 9.357 A 20.464 20.464 0 0 1 13.354 2.351 Q 19.434 0.007 27.393 0.007 Q 34.375 0.007 39.966 1.569 Q 45.557 3.132 50 5.134 L 44.092 20.026 A 61.882 61.882 0 0 0 35.059 16.682 A 30.711 30.711 0 0 0 26.807 15.436 A 11.509 11.509 0 0 0 22.729 16.047 A 5.082 5.082 0 0 0 20.386 17.683 A 3.844 3.844 0 0 0 19.629 20.026 A 4.147 4.147 0 0 0 20.923 23.005 A 16.992 16.992 0 0 0 25.269 25.861 Q 28.32 27.399 33.594 29.841 Q 38.818 32.185 42.48 34.895 Q 46.143 37.604 48.071 41.389 Q 50 45.173 50 50.739 A 22.095 22.095 0 0 1 47.07 61.75 A 21.462 21.462 0 0 1 37.964 70.173 Q 31.787 73.395 22.021 73.395 A 73.325 73.325 0 0 1 13.452 72.956 A 37.571 37.571 0 0 1 6.592 71.516 Q 3.418 70.515 0 68.903 Z" id="0" vector-effect="non-scaling-stroke"/>
    </g>
</svg>