<svg height="50" viewBox="0 0 100 55" xmlns="http://www.w3.org/2000/svg">
    <g transform="translate(50, 0) scale(0.24)">
        <path d="M 0 0 L 180 60 C 192 65 186 82 174 78 L 0 20 L -174 78 C -186 82 -192 65 -180 60 L 0 0" />
    </g>

    <g id="abbr" transform="translate(19, 16) scale(0.37)" stroke-linecap="round" fill-rule="evenodd" font-size="9pt" stroke="#000" stroke-width="0.1mm" fill="#000" style="stroke:#000;stroke-width:0.1mm;fill:#000">
        <path d="M 0 69.092 L 0 55.03 A 116.047 116.047 0 0 0 10.547 59.082 Q 16.016 60.889 21.387 60.889 A 23.023 23.023 0 0 0 23.755 60.775 Q 24.914 60.655 25.886 60.408 A 9.938 9.938 0 0 0 27.368 59.912 A 8.645 8.645 0 0 0 28.952 59.038 Q 29.997 58.298 30.615 57.308 A 5.502 5.502 0 0 0 30.664 57.227 A 7.232 7.232 0 0 0 31.659 54.061 A 8.913 8.913 0 0 0 31.689 53.321 A 6.43 6.43 0 0 0 29.883 48.731 A 14.646 14.646 0 0 0 28.045 47.111 Q 27.077 46.384 25.89 45.698 A 28.013 28.013 0 0 0 24.927 45.166 Q 21.777 43.506 17.822 41.602 A 64.461 64.461 0 0 1 15.222 40.302 A 87.68 87.68 0 0 1 12.402 38.745 A 30.581 30.581 0 0 1 7.167 34.922 A 33.97 33.97 0 0 1 6.836 34.619 A 19.27 19.27 0 0 1 2.951 29.543 A 22.31 22.31 0 0 1 2.515 28.687 A 16.263 16.263 0 0 1 1.2 24.585 Q 0.83 22.602 0.83 20.313 A 23.329 23.329 0 0 1 1.411 14.984 A 17.701 17.701 0 0 1 3.76 9.375 A 18.162 18.162 0 0 1 10.415 3.268 A 22.634 22.634 0 0 1 12.134 2.417 Q 17.419 0.071 24.567 0.002 A 45.053 45.053 0 0 1 25 0 A 43.166 43.166 0 0 1 34.349 0.991 A 39.691 39.691 0 0 1 35.62 1.294 Q 40.674 2.588 46.191 5.03 L 41.309 16.797 A 106.606 106.606 0 0 0 37.19 15.218 Q 34.668 14.315 32.471 13.697 Q 28.564 12.598 24.512 12.598 Q 21.68 12.598 19.678 13.501 Q 17.676 14.405 16.65 16.04 A 6.732 6.732 0 0 0 15.664 19.005 A 8.421 8.421 0 0 0 15.625 19.824 A 7.171 7.171 0 0 0 15.931 21.96 A 5.955 5.955 0 0 0 17.114 24.097 A 10.664 10.664 0 0 0 18.444 25.38 Q 19.73 26.435 21.606 27.442 A 128.754 128.754 0 0 0 24.068 28.726 Q 25.181 29.292 26.439 29.911 A 269.409 269.409 0 0 0 29.102 31.201 Q 34.207 33.617 37.93 36.225 A 42.436 42.436 0 0 1 38.452 36.597 A 21.637 21.637 0 0 1 42.521 40.381 A 18.73 18.73 0 0 1 44.434 43.189 A 15.785 15.785 0 0 1 46.008 47.431 Q 46.533 49.781 46.533 52.588 Q 46.533 58.936 43.457 63.623 A 18.6 18.6 0 0 1 37.425 69.349 A 24.045 24.045 0 0 1 34.497 70.85 Q 29.297 73.094 22.133 73.355 A 52.735 52.735 0 0 1 20.215 73.389 A 53.015 53.015 0 0 1 12.964 72.901 A 46.889 46.889 0 0 1 6.278 71.49 A 43.462 43.462 0 0 1 6.177 71.46 A 40.084 40.084 0 0 1 0 69.092 Z" id="0" vector-effect="non-scaling-stroke"/>
        <path d="M 119.482 72.412 L 103.174 72.412 L 97.998 55.42 L 71.973 55.42 L 66.797 72.412 L 50.488 72.412 L 75.684 0.733 L 94.189 0.733 L 119.482 72.412 Z M 75.781 42.725 L 94.385 42.725 L 89.209 26.123 A 205.993 205.993 0 0 0 88.945 25.234 Q 88.579 24.01 88.081 22.391 A 621.558 621.558 0 0 0 87.915 21.851 A 546.361 546.361 0 0 1 86.304 16.529 A 133.257 133.257 0 0 1 85.744 14.596 Q 85.315 13.068 85.01 11.817 Q 84.533 13.77 83.708 16.63 A 214.197 214.197 0 0 1 83.667 16.773 Q 82.813 19.727 82.031 22.364 Q 81.312 24.792 80.965 25.936 A 158.765 158.765 0 0 1 80.908 26.123 L 75.781 42.725 Z" id="1" vector-effect="non-scaling-stroke"/>
        <path d="M 172.559 72.412 L 128.467 72.412 L 128.467 1.026 L 143.604 1.026 L 143.604 59.912 L 172.559 59.912 L 172.559 72.412 Z" id="2" vector-effect="non-scaling-stroke"/>
    </g>
    
    
    <g id="long" transform="translate(2, 45) scale(0.1, 0.09)" stroke-linecap="round" fill-rule="evenodd" font-size="4pt" stroke="#000" stroke-width="0mm" fill="#000" style="stroke:#000;stroke-width:0.1mm;fill:#000">
        <path d="M 0 74.427 L 0 69.397 Q 3.809 70.862 8.813 71.961 Q 13.818 73.059 19.727 73.059 A 28.184 28.184 0 0 0 29.614 71.448 A 14.824 14.824 0 0 0 36.426 66.565 A 13.234 13.234 0 0 0 38.916 58.313 A 11.803 11.803 0 0 0 36.841 51.111 A 16.587 16.587 0 0 0 30.615 46.277 Q 26.465 44.251 20.166 42.151 Q 15.771 40.637 12.183 38.953 Q 8.594 37.268 6.055 35.047 A 14.702 14.702 0 0 1 2.173 29.676 Q 0.83 26.526 0.83 22.229 Q 0.83 16.321 3.833 12.293 Q 6.836 8.264 11.987 6.189 A 30.801 30.801 0 0 1 23.584 4.114 A 48.122 48.122 0 0 1 33.325 5.066 A 43.753 43.753 0 0 1 42.236 7.923 L 40.479 12.268 Q 36.182 10.413 31.885 9.534 A 42.314 42.314 0 0 0 23.389 8.655 Q 18.359 8.655 14.429 10.144 Q 10.498 11.634 8.203 14.612 Q 5.908 17.591 5.908 22.132 Q 5.908 26.819 8.032 29.7 Q 10.156 32.581 14.087 34.485 A 80.044 80.044 0 0 0 23.389 38.196 A 79.877 79.877 0 0 1 34.326 42.713 A 19.094 19.094 0 0 1 41.431 48.694 A 16.164 16.164 0 0 1 43.945 58.118 A 17.426 17.426 0 0 1 40.723 68.836 A 19.54 19.54 0 0 1 31.982 75.33 A 33.893 33.893 0 0 1 19.482 77.503 Q 15.137 77.503 11.597 77.088 A 55.284 55.284 0 0 1 5.2 75.989 Q 2.344 75.305 0 74.427 Z" id="0" vector-effect="non-scaling-stroke"/>
        <path d="M 100.439 61.121 A 38.962 38.962 0 0 0 101.953 49.915 Q 101.953 41.809 99.365 35.608 Q 96.777 29.407 91.626 25.916 Q 86.475 22.425 78.76 22.425 Q 71.289 22.425 65.942 25.72 A 21.296 21.296 0 0 0 57.739 35.193 A 34.83 34.83 0 0 0 54.883 49.915 Q 54.883 56.116 56.445 61.17 A 25.408 25.408 0 0 0 61.011 69.886 A 20.188 20.188 0 0 0 68.359 75.525 A 23.687 23.687 0 0 0 78.271 77.503 A 24.693 24.693 0 0 0 88.55 75.501 A 20.057 20.057 0 0 0 95.947 69.837 A 25.007 25.007 0 0 0 100.439 61.121 Z M 59.961 49.915 A 34.027 34.027 0 0 0 61.963 62.122 Q 63.965 67.346 68.042 70.276 A 17.257 17.257 0 0 0 78.369 73.206 A 17.632 17.632 0 0 0 88.867 70.276 A 17.032 17.032 0 0 0 94.922 62.073 Q 96.875 56.8 96.875 49.915 A 35.486 35.486 0 0 0 95.02 38.001 Q 93.164 32.776 89.16 29.773 A 16.968 16.968 0 0 0 78.711 26.77 A 16.606 16.606 0 0 0 64.722 32.923 A 25.991 25.991 0 0 0 59.99 48.25 A 46.925 46.925 0 0 0 59.961 49.915 Z" id="1" vector-effect="non-scaling-stroke"/>
        <path d="M 136.328 23.45 L 136.328 27.552 L 123.828 27.552 L 123.828 76.526 L 118.896 76.526 L 118.896 27.552 L 109.033 27.552 L 109.033 24.622 L 118.896 23.352 L 118.896 17.493 A 24.55 24.55 0 0 1 120.581 7.752 A 11.824 11.824 0 0 1 125.708 1.941 Q 129.15 0.012 134.424 0.012 Q 137.158 0.012 139.355 0.428 A 31.404 31.404 0 0 1 143.457 1.477 L 142.334 5.628 A 27.207 27.207 0 0 0 138.55 4.651 Q 136.475 4.261 134.473 4.261 A 9.869 9.869 0 0 0 126.343 7.361 A 15.079 15.079 0 0 0 123.841 16.481 A 36.554 36.554 0 0 0 123.828 17.444 L 123.828 23.45 L 136.328 23.45 Z" id="2" vector-effect="non-scaling-stroke"/>
        <path d="M 168.701 72.034 L 168.701 76.136 Q 167.139 76.673 165.039 77.088 A 23.976 23.976 0 0 1 160.4 77.503 A 15.011 15.011 0 0 1 152.93 75.818 Q 149.951 74.134 148.438 70.691 A 21.89 21.89 0 0 1 146.924 61.927 L 146.924 27.552 L 139.014 27.552 L 139.014 24.622 L 146.875 23.108 L 148.584 10.608 L 151.855 10.608 L 151.855 23.45 L 168.408 23.45 L 168.408 27.552 L 151.855 27.552 L 151.855 61.634 Q 151.855 67.346 153.979 70.301 Q 156.104 73.255 160.938 73.255 A 25.113 25.113 0 0 0 165.21 72.913 Q 167.188 72.571 168.701 72.034 Z" id="3" vector-effect="non-scaling-stroke"/>
        <path d="M 227.686 76.526 L 222.461 76.526 L 211.182 40.882 A 106.757 106.757 0 0 1 210.205 37.805 A 224.525 224.525 0 0 1 209.375 34.973 A 137.772 137.772 0 0 1 208.643 32.312 A 559.455 559.455 0 0 0 207.959 29.749 L 207.715 29.749 A 287.24 287.24 0 0 0 207.031 32.337 A 182.904 182.904 0 0 1 206.299 35.071 A 134.547 134.547 0 0 1 205.469 37.952 Q 205.029 39.417 204.492 40.979 L 192.822 76.526 L 187.744 76.526 L 172.656 23.45 L 177.881 23.45 L 187.207 57.386 Q 188.037 60.364 188.623 62.708 A 242.411 242.411 0 0 1 189.648 66.956 Q 190.088 68.86 190.43 70.569 L 190.674 70.569 A 193.017 193.017 0 0 1 191.309 68.006 A 704.07 704.07 0 0 0 192.041 65.1 A 67.07 67.07 0 0 1 192.969 61.78 A 1104.106 1104.106 0 0 1 194.141 57.971 L 205.518 23.45 L 210.4 23.45 L 221.338 57.874 A 232.349 232.349 0 0 1 222.778 62.635 Q 223.438 64.905 223.95 66.858 Q 224.463 68.811 224.805 70.52 L 225.098 70.52 A 39.606 39.606 0 0 1 225.708 66.98 A 118.551 118.551 0 0 1 226.733 62.659 A 365.021 365.021 0 0 1 228.125 57.386 L 237.109 23.45 L 242.09 23.45 L 227.686 76.526 Z" id="4" vector-effect="non-scaling-stroke"/>
        <path d="M 288.281 40.93 L 288.281 76.526 L 284.473 76.526 L 283.594 67.249 L 283.301 67.249 Q 281.592 70.227 279.15 72.547 A 17.347 17.347 0 0 1 273.169 76.184 Q 269.629 77.503 264.551 77.503 A 20.482 20.482 0 0 1 255.786 75.794 Q 252.148 74.085 250.171 70.813 A 15.115 15.115 0 0 1 248.193 62.854 A 13.363 13.363 0 0 1 254.736 50.818 A 33.03 33.03 0 0 1 268.404 46.567 A 67.41 67.41 0 0 1 273.535 46.155 L 283.398 45.667 L 283.398 41.809 A 19.652 19.652 0 0 0 281.209 31.552 A 8.791 8.791 0 0 0 280.176 30.188 A 12.373 12.373 0 0 0 270.654 26.721 A 29.363 29.363 0 0 0 262.769 27.771 A 42.827 42.827 0 0 0 255.078 30.774 L 253.516 26.673 Q 257.324 24.866 261.694 23.694 Q 266.064 22.522 270.85 22.522 Q 279.59 22.522 283.936 26.917 A 17.607 17.607 0 0 1 288.213 38.607 A 38.439 38.439 0 0 1 288.281 40.93 Z M 283.35 54.749 L 283.35 49.524 L 274.072 49.915 A 39.882 39.882 0 0 0 261.131 52.327 A 18.477 18.477 0 0 0 258.691 53.528 A 10.206 10.206 0 0 0 253.418 62.903 A 9.579 9.579 0 0 0 256.567 70.618 A 13.094 13.094 0 0 0 265.332 73.303 A 17.308 17.308 0 0 0 278.687 68.323 A 19.363 19.363 0 0 0 283.35 54.749 Z" id="5" vector-effect="non-scaling-stroke"/>
        <path d="M 333.838 23.45 L 333.057 27.991 A 24.773 24.773 0 0 0 329.785 27.332 Q 328.125 27.112 326.221 27.112 A 15.345 15.345 0 0 0 319.507 28.528 Q 316.553 29.944 314.502 32.581 Q 312.451 35.218 311.377 38.928 A 29.823 29.823 0 0 0 310.303 47.229 L 310.303 76.526 L 305.322 76.526 L 305.322 23.45 L 309.57 23.45 L 310.059 33.46 L 310.352 33.46 Q 311.572 30.384 313.794 27.918 Q 316.016 25.452 319.189 23.987 A 17.059 17.059 0 0 1 326.416 22.522 Q 328.516 22.522 330.371 22.766 A 26.146 26.146 0 0 1 333.838 23.45 Z" id="6" vector-effect="non-scaling-stroke"/>
        <path d="M 384.57 46.936 L 384.57 50.501 L 346.24 50.501 A 27.166 27.166 0 0 0 349.838 65.343 A 17.193 17.193 0 0 0 351.294 67.298 Q 356.348 73.157 365.771 73.157 A 40.038 40.038 0 0 0 374.341 72.351 A 44.067 44.067 0 0 0 382.422 69.593 L 382.422 74.134 Q 378.516 75.891 374.609 76.697 A 44.799 44.799 0 0 1 365.625 77.503 Q 357.568 77.503 352.124 74.158 Q 346.68 70.813 343.921 64.71 A 34.336 34.336 0 0 1 341.162 50.452 Q 341.162 42.493 343.823 36.145 A 22.902 22.902 0 0 1 351.636 26.111 Q 356.787 22.425 364.307 22.425 A 19.185 19.185 0 0 1 375.61 25.598 A 19.007 19.007 0 0 1 382.349 34.29 A 33.652 33.652 0 0 1 384.57 46.936 Z M 346.387 46.302 L 379.443 46.302 A 29.201 29.201 0 0 0 377.783 36.048 Q 376.123 31.604 372.778 29.138 A 13.983 13.983 0 0 0 364.258 26.673 Q 356.641 26.673 351.929 31.726 A 23.377 23.377 0 0 0 346.442 45.711 A 42.078 42.078 0 0 0 346.387 46.302 Z" id="7" vector-effect="non-scaling-stroke"/>
        <path d="M 476.318 76.526 L 471.045 76.526 L 461.328 51.282 L 431.348 51.282 L 421.436 76.526 L 416.309 76.526 L 444.385 4.895 L 448.975 4.895 L 476.318 76.526 Z M 433.057 46.741 L 459.717 46.741 L 449.854 19.983 A 101.466 101.466 0 0 1 448.901 17.346 Q 448.34 15.735 447.729 13.928 A 157.972 157.972 0 0 0 446.533 10.511 A 68.903 68.903 0 0 1 445.459 13.928 A 885.042 885.042 0 0 0 444.336 17.224 Q 443.799 18.811 443.311 20.081 L 433.057 46.741 Z" id="9" vector-effect="non-scaling-stroke"/>
        <path d="M 527.051 41.809 L 527.051 76.526 L 522.168 76.526 L 522.168 42.102 A 16.848 16.848 0 0 0 519.019 30.993 A 9.836 9.836 0 0 0 518.555 30.481 Q 514.941 26.77 508.057 26.77 A 17.083 17.083 0 0 0 494.702 31.873 Q 490.088 36.975 490.088 47.278 L 490.088 76.526 L 485.156 76.526 L 485.156 23.45 L 489.16 23.45 L 489.893 33.118 L 490.186 33.118 A 18.864 18.864 0 0 1 494.067 27.722 A 18.169 18.169 0 0 1 500.146 23.865 A 22.58 22.58 0 0 1 508.545 22.425 A 18.8 18.8 0 0 1 522.266 27.112 A 18.372 18.372 0 0 1 526.994 39.683 A 38.37 38.37 0 0 1 527.051 41.809 Z" id="10" vector-effect="non-scaling-stroke"/>
        <path d="M 580.176 40.93 L 580.176 76.526 L 576.367 76.526 L 575.488 67.249 L 575.195 67.249 Q 573.486 70.227 571.045 72.547 A 17.347 17.347 0 0 1 565.063 76.184 Q 561.523 77.503 556.445 77.503 A 20.482 20.482 0 0 1 547.681 75.794 Q 544.043 74.085 542.065 70.813 A 15.115 15.115 0 0 1 540.088 62.854 A 13.363 13.363 0 0 1 546.631 50.818 A 33.03 33.03 0 0 1 560.298 46.567 A 67.41 67.41 0 0 1 565.43 46.155 L 575.293 45.667 L 575.293 41.809 A 19.652 19.652 0 0 0 573.104 31.552 A 8.791 8.791 0 0 0 572.07 30.188 A 12.373 12.373 0 0 0 562.549 26.721 A 29.363 29.363 0 0 0 554.663 27.771 A 42.827 42.827 0 0 0 546.973 30.774 L 545.41 26.673 Q 549.219 24.866 553.589 23.694 Q 557.959 22.522 562.744 22.522 Q 571.484 22.522 575.83 26.917 A 17.607 17.607 0 0 1 580.108 38.607 A 38.439 38.439 0 0 1 580.176 40.93 Z M 575.244 54.749 L 575.244 49.524 L 565.967 49.915 A 39.882 39.882 0 0 0 553.026 52.327 A 18.477 18.477 0 0 0 550.586 53.528 A 10.206 10.206 0 0 0 545.312 62.903 A 9.579 9.579 0 0 0 548.462 70.618 A 13.094 13.094 0 0 0 557.227 73.303 A 17.308 17.308 0 0 0 570.581 68.323 A 19.363 19.363 0 0 0 575.244 54.749 Z" id="11" vector-effect="non-scaling-stroke"/>
        <path d="M 602.197 0.55 L 602.197 76.526 L 597.217 76.526 L 597.217 0.55 L 602.197 0.55 Z" id="12" vector-effect="non-scaling-stroke"/>
        <path d="M 631.689 76.233 L 611.035 23.45 L 616.26 23.45 L 629.15 57.141 A 197.11 197.11 0 0 1 631.226 62.635 Q 632.129 65.149 632.813 67.224 A 59.838 59.838 0 0 1 633.936 71.009 L 634.229 71.009 Q 634.961 68.762 636.182 65.222 Q 637.402 61.682 638.965 57.337 L 651.709 23.45 L 656.982 23.45 L 632.764 86.487 Q 631.006 91.077 628.906 94.275 A 14.821 14.821 0 0 1 623.975 99.109 Q 621.143 100.745 617.139 100.745 A 18.218 18.218 0 0 1 613.867 100.476 Q 612.402 100.208 611.035 99.768 L 611.035 95.52 A 26.647 26.647 0 0 0 613.647 96.179 A 15.09 15.09 0 0 0 616.602 96.448 Q 619.385 96.448 621.411 95.301 Q 623.438 94.153 625.049 91.761 Q 626.66 89.368 628.076 85.657 L 631.689 76.233 Z" id="13" vector-effect="non-scaling-stroke"/>
        <path d="M 661.279 74.134 L 661.279 69.251 A 40.963 40.963 0 0 0 669.385 72.18 A 37.118 37.118 0 0 0 678.516 73.303 Q 686.719 73.303 690.332 70.52 A 9.092 9.092 0 0 0 693.945 62.903 Q 693.945 59.729 692.163 57.654 Q 690.381 55.579 687.061 54.065 A 82.326 82.326 0 0 0 679.053 50.989 A 116.601 116.601 0 0 1 670.386 47.693 A 14.949 14.949 0 0 1 664.453 43.347 A 11.598 11.598 0 0 1 662.305 35.95 A 11.45 11.45 0 0 1 667.432 25.989 A 23.719 23.719 0 0 1 681.201 22.425 A 41.638 41.638 0 0 1 690.112 23.328 A 43.168 43.168 0 0 1 697.607 25.647 L 695.85 29.846 A 33.787 33.787 0 0 0 688.867 27.552 A 36.365 36.365 0 0 0 680.957 26.673 A 19.08 19.08 0 0 0 670.801 28.968 A 7.46 7.46 0 0 0 667.139 35.706 A 7.645 7.645 0 0 0 668.896 41.053 A 13.294 13.294 0 0 0 673.926 44.275 Q 677.197 45.569 681.689 47.132 A 107.151 107.151 0 0 1 690.259 50.501 A 17.22 17.22 0 0 1 696.533 55.042 A 11.379 11.379 0 0 1 698.877 62.61 Q 698.877 67.346 696.509 70.691 Q 694.141 74.036 689.6 75.769 Q 685.059 77.503 678.418 77.503 A 45.181 45.181 0 0 1 668.555 76.526 Q 664.209 75.55 661.279 74.134 Z" id="14" vector-effect="non-scaling-stroke"/>
        <path d="M 712.256 23.45 L 717.188 23.45 L 717.188 76.526 L 712.256 76.526 L 712.256 23.45 Z M 714.795 3.821 Q 716.65 3.821 717.529 4.92 Q 718.408 6.018 718.408 7.874 A 4.493 4.493 0 0 1 717.529 10.803 A 3.328 3.328 0 0 1 714.795 11.878 A 3.207 3.207 0 0 1 712.158 10.803 Q 711.279 9.729 711.279 7.874 Q 711.279 6.018 712.158 4.92 Q 713.037 3.821 714.795 3.821 Z" id="15" vector-effect="non-scaling-stroke"/>
        <path d="M 730.469 74.134 L 730.469 69.251 A 40.963 40.963 0 0 0 738.574 72.18 A 37.118 37.118 0 0 0 747.705 73.303 Q 755.908 73.303 759.521 70.52 A 9.092 9.092 0 0 0 763.135 62.903 Q 763.135 59.729 761.353 57.654 Q 759.57 55.579 756.25 54.065 A 82.326 82.326 0 0 0 748.242 50.989 A 116.601 116.601 0 0 1 739.575 47.693 A 14.949 14.949 0 0 1 733.643 43.347 A 11.598 11.598 0 0 1 731.494 35.95 A 11.45 11.45 0 0 1 736.621 25.989 A 23.719 23.719 0 0 1 750.391 22.425 A 41.638 41.638 0 0 1 759.302 23.328 A 43.168 43.168 0 0 1 766.797 25.647 L 765.039 29.846 A 33.787 33.787 0 0 0 758.057 27.552 A 36.365 36.365 0 0 0 750.146 26.673 A 19.08 19.08 0 0 0 739.99 28.968 A 7.46 7.46 0 0 0 736.328 35.706 A 7.645 7.645 0 0 0 738.086 41.053 A 13.294 13.294 0 0 0 743.115 44.275 Q 746.387 45.569 750.879 47.132 A 107.151 107.151 0 0 1 759.448 50.501 A 17.22 17.22 0 0 1 765.723 55.042 A 11.379 11.379 0 0 1 768.066 62.61 Q 768.066 67.346 765.698 70.691 Q 763.33 74.036 758.789 75.769 Q 754.248 77.503 747.607 77.503 A 45.181 45.181 0 0 1 737.744 76.526 Q 733.398 75.55 730.469 74.134 Z" id="16" vector-effect="non-scaling-stroke"/>
        <path d="M 847.705 76.526 L 808.691 76.526 L 808.691 5.139 L 813.721 5.139 L 813.721 71.936 L 847.705 71.936 L 847.705 76.526 Z" id="18" vector-effect="non-scaling-stroke"/>
        <path d="M 894.678 40.93 L 894.678 76.526 L 890.869 76.526 L 889.99 67.249 L 889.697 67.249 Q 887.988 70.227 885.547 72.547 A 17.347 17.347 0 0 1 879.565 76.184 Q 876.025 77.503 870.947 77.503 A 20.482 20.482 0 0 1 862.183 75.794 Q 858.545 74.085 856.567 70.813 A 15.115 15.115 0 0 1 854.59 62.854 A 13.363 13.363 0 0 1 861.133 50.818 A 33.03 33.03 0 0 1 874.8 46.567 A 67.41 67.41 0 0 1 879.932 46.155 L 889.795 45.667 L 889.795 41.809 A 19.652 19.652 0 0 0 887.606 31.552 A 8.791 8.791 0 0 0 886.572 30.188 A 12.373 12.373 0 0 0 877.051 26.721 A 29.363 29.363 0 0 0 869.165 27.771 A 42.827 42.827 0 0 0 861.475 30.774 L 859.912 26.673 Q 863.721 24.866 868.091 23.694 Q 872.461 22.522 877.246 22.522 Q 885.986 22.522 890.332 26.917 A 17.607 17.607 0 0 1 894.61 38.607 A 38.439 38.439 0 0 1 894.678 40.93 Z M 889.746 54.749 L 889.746 49.524 L 880.469 49.915 A 39.882 39.882 0 0 0 867.528 52.327 A 18.477 18.477 0 0 0 865.088 53.528 A 10.206 10.206 0 0 0 859.814 62.903 A 9.579 9.579 0 0 0 862.964 70.618 A 13.094 13.094 0 0 0 871.729 73.303 A 17.308 17.308 0 0 0 885.083 68.323 A 19.363 19.363 0 0 0 889.746 54.749 Z" id="19" vector-effect="non-scaling-stroke"/>
        <path d="M 911.621 0.55 L 916.553 0.55 L 916.553 22.132 Q 916.553 24.915 916.455 28.235 A 379.664 379.664 0 0 1 916.26 33.753 L 916.553 33.753 A 17.285 17.285 0 0 1 923.193 25.598 Q 927.93 22.376 935.01 22.376 A 19.38 19.38 0 0 1 951.001 29.358 A 27.68 27.68 0 0 1 956.371 44.232 A 54.939 54.939 0 0 1 956.641 49.817 A 38.142 38.142 0 0 1 954.102 64.295 A 21.314 21.314 0 0 1 946.558 74.012 A 21.371 21.371 0 0 1 934.033 77.503 A 19.659 19.659 0 0 1 922.949 74.646 A 16.961 16.961 0 0 1 916.699 67.493 L 916.309 67.493 L 915.381 76.526 L 911.621 76.526 L 911.621 0.55 Z M 916.553 49.915 L 916.553 50.696 A 34.5 34.5 0 0 0 918.9 64.456 A 17.637 17.637 0 0 0 920.557 67.444 A 14.691 14.691 0 0 0 933.545 73.206 A 15.77 15.77 0 0 0 946.997 67.127 Q 951.563 61.048 951.563 49.817 A 35.576 35.576 0 0 0 949.272 36.005 A 17.666 17.666 0 0 0 947.314 32.508 A 14.843 14.843 0 0 0 934.473 26.673 A 17.784 17.784 0 0 0 924.219 29.383 A 15.589 15.589 0 0 0 918.408 37.268 Q 916.553 42.444 916.553 49.915 Z" id="20" vector-effect="non-scaling-stroke"/>
        <path d="M 971.387 69.763 A 4.948 4.948 0 0 0 970.41 73.059 A 5.049 5.049 0 0 0 971.387 76.38 A 3.536 3.536 0 0 0 974.268 77.552 Q 976.367 77.552 977.344 76.38 A 5.049 5.049 0 0 0 978.32 73.059 Q 978.32 70.911 977.344 69.763 A 3.823 3.823 0 0 0 974.268 68.616 A 3.572 3.572 0 0 0 971.387 69.763 Z" id="21" vector-effect="non-scaling-stroke"/>
    </g>
</svg>